{"asset":{"generator":"3D Builder","version":"2.0"},"scene":0,"scenes":[{"nodes":[0,1]}],"nodes":[{"mesh":0,"matrix":[1,0,0,0,0,-1.1920928955078125E-7,-0.99999988079071045,0,0,0.99999988079071045,-1.1920928955078125E-7,0,-5.753039999945031E-7,-1.1048150838632864E-8,1.3170423182024102E-15,1]},{"mesh":1,"matrix":[1,0,0,0,0,-1.1920928955078125E-7,-0.99999988079071045,0,0,0.99999988079071045,-1.1920928955078125E-7,0,-5.753039999945031E-7,-1.1048150838632864E-8,1.3170423182024102E-15,1]}],"meshes":[{"primitives":[{"attributes":{"POSITION":0,"TEXCOORD_0":1},"mode":4,"indices":2,"material":0}]},{"primitives":[{"attributes":{"POSITION":3,"TEXCOORD_0":4},"mode":4,"indices":5,"material":1}]}],"materials":[{"pbrMetallicRoughness":{"baseColorFactor":[1,1,1,1],"metallicFactor":0,"roughnessFactor":1,"baseColorTexture":{"index":0,"texCoord":0}},"alphaMode":"OPAQUE"},{"pbrMetallicRoughness":{"baseColorFactor":[1,1,1,1],"metallicFactor":0,"roughnessFactor":1,"baseColorTexture":{"index":1,"texCoord":0}},"alphaMode":"OPAQUE"}],"textures":[{"source":0,"sampler":0},{"source":1,"sampler":0}],"images":[{"uri":"oak.jpg"},{"uri":"walnut.jpg"}],"samplers":[{"magFilter":9729,"wrapS":10497,"wrapT":10497}],"accessors":[{"bufferView":0,"byteOffset":0,"count":8,"componentType":5126,"type":"VEC3","min":[-0.068006671965122223,-0.019999997690320015,1.670526117436566E-8],"max":[-0.028008675202727318,0.019999979063868523,0.039997991174459457]},{"bufferView":1,"byteOffset":0,"count":8,"componentType":5126,"type":"VEC2"},{"bufferView":2,"byteOffset":0,"count":36,"componentType":5125,"type":"SCALAR"},{"bufferView":3,"byteOffset":0,"count":8,"componentType":5126,"type":"VEC3","min":[0.027961499989032745,-0.030768437311053276,1.1048151726811284E-8],"max":[0.068007819354534149,0.030768437311053276,0.03999800980091095]},{"bufferView":4,"byteOffset":0,"count":8,"componentType":5126,"type":"VEC2"},{"bufferView":5,"byteOffset":0,"count":36,"componentType":5125,"type":"SCALAR"}],"bufferViews":[{"buffer":0,"byteOffset":0,"byteLength":96,"byteStride":12,"target":34962},{"buffer":0,"byteOffset":96,"byteLength":64,"byteStride":8,"target":34962},{"buffer":0,"byteOffset":160,"byteLength":144,"target":34963},{"buffer":0,"byteOffset":304,"byteLength":96,"byteStride":12,"target":34962},{"buffer":0,"byteOffset":400,"byteLength":64,"byteStride":8,"target":34962},{"buffer":0,"byteOffset":464,"byteLength":144,"target":34963}],"buffers":[{"byteLength":608,"uri":"twocubes.bin"}]}