{"asset":{"generator":"3D Builder","version":"2.0"},"scene":0,"scenes":[{"nodes":[0,1]}],"nodes":[{"mesh":0,"matrix":[0.96505451202392578,1.0003873285313603E-9,-0.2620510458946228,0,-0.26205113530158997,-8.4099255559522135E-8,-0.96505439281463623,0,-2.300371448882288E-8,0.99999982118606567,-8.0898047372102155E-8,0,-0.021642586216330528,-0.01920962892472744,0.076750531792640686,1]},{"mesh":1,"matrix":[0.99999994039535522,0,0,0,0,-1.1920928244535389E-7,-0.99999982118606567,0,0,0.99999982118606567,-1.1920928244535389E-7,0,-0.04744204506278038,-0.01920962892472744,0.062443245202302933,1]}],"meshes":[{"primitives":[{"attributes":{"POSITION":0},"mode":4,"indices":1,"material":0}]},{"primitives":[{"attributes":{"POSITION":2},"mode":4,"indices":3,"material":1}]}],"materials":[{"name":"Metallic","pbrMetallicRoughness":{"baseColorFactor":[0.91309869289398193,0.87136721611022949,0.87136721611022949,1],"metallicFactor":1,"roughnessFactor":0.11000001430511475},"alphaMode":"OPAQUE"},{"name":"Green","pbrMetallicRoughness":{"baseColorFactor":[0.015208514407277107,0.49693304300308228,0.072271861135959625,1],"metallicFactor":0,"roughnessFactor":1},"alphaMode":"OPAQUE"}],"accessors":[{"bufferView":0,"byteOffset":0,"count":5,"componentType":5126,"type":"VEC3","min":[0.042998004704713821,0.042998004704713821,0],"max":[0.082998007535934448,0.082998007535934448,0.039998002350330353]},{"bufferView":1,"byteOffset":0,"count":18,"componentType":5125,"type":"SCALAR"},{"bufferView":2,"byteOffset":0,"count":8,"componentType":5126,"type":"VEC3","min":[0,0.042998004704713821,0],"max":[0.039998002350330353,0.082998007535934448,0.039998002350330353]},{"bufferView":3,"byteOffset":0,"count":36,"componentType":5125,"type":"SCALAR"}],"bufferViews":[{"buffer":0,"byteOffset":0,"byteLength":60,"byteStride":12,"target":34962},{"buffer":0,"byteOffset":60,"byteLength":72,"target":34963},{"buffer":0,"byteOffset":132,"byteLength":96,"byteStride":12,"target":34962},{"buffer":0,"byteOffset":228,"byteLength":144,"target":34963}],"buffers":[{"byteLength":372,"uri":"Cube-Pyramid.bin"}]}