{"asset":{"generator":"3D Builder","version":"2.0"},"scene":0,"scenes":[{"nodes":[0,1]}],"nodes":[{"mesh":0,"matrix":[711.9114990234375,7.3802038969006389E-7,-193.31259155273437,0,-193.31271362304687,-6.2039209296926856E-5,-711.9117431640625,0,-1.6969603166216984E-5,737.69012451171875,-5.9677848184946924E-5,0,-15.871689796447754,-0.019202837720513344,57.026748657226563,1]},{"mesh":1,"matrix":[737.690185546875,0,0,0,0,-8.7939522927626967E-5,-737.69012451171875,0,0,737.69012451171875,-8.7939522927626967E-5,0,-34.903736114501953,-0.019204096868634224,46.472370147705078,1]}],"meshes":[{"primitives":[{"attributes":{"POSITION":0},"mode":4,"indices":1,"material":0}]},{"primitives":[{"attributes":{"POSITION":2},"mode":4,"indices":3,"material":1}]}],"materials":[{"name":"Metallic","pbrMetallicRoughness":{"baseColorFactor":[0.91309869289398193,0.87136721611022949,0.87136721611022949,1],"metallicFactor":1,"roughnessFactor":0.11000001430511475},"alphaMode":"OPAQUE"},{"name":"Green","pbrMetallicRoughness":{"baseColorFactor":[0.015208514407277107,0.49693304300308228,0.072271861135959625,1],"metallicFactor":0,"roughnessFactor":1},"alphaMode":"OPAQUE"}],"accessors":[{"bufferView":0,"byteOffset":0,"count":5,"componentType":5126,"type":"VEC3","min":[0.042998004704713821,0.042998004704713821,0],"max":[0.082998007535934448,0.082998007535934448,0.039998002350330353]},{"bufferView":1,"byteOffset":0,"count":18,"componentType":5125,"type":"SCALAR"},{"bufferView":2,"byteOffset":0,"count":8,"componentType":5126,"type":"VEC3","min":[0,0.042998004704713821,0],"max":[0.039998002350330353,0.082998007535934448,0.039998002350330353]},{"bufferView":3,"byteOffset":0,"count":36,"componentType":5125,"type":"SCALAR"}],"bufferViews":[{"buffer":0,"byteOffset":0,"byteLength":60,"byteStride":12,"target":34962},{"buffer":0,"byteOffset":60,"byteLength":72,"target":34963},{"buffer":0,"byteOffset":132,"byteLength":96,"byteStride":12,"target":34962},{"buffer":0,"byteOffset":228,"byteLength":144,"target":34963}],"buffers":[{"byteLength":372,"uri":"Cube-Pyramid.bin"}]}