{"asset":{"generator":"3D Builder","version":"2.0"},"scene":0,"scenes":[{"nodes":[0,1,2,3,4,5]}],"nodes":[{"mesh":0,"matrix":[1,0,0,0,0,-1.1920928955078125E-7,-0.99999988079071045,0,0,0.99999988079071045,-1.1920928955078125E-7,0,0,7.4226693413947942E-7,-8.8485127428331034E-14,1]},{"mesh":1,"matrix":[1,0,0,0,0,-1.1920928955078125E-7,-0.99999988079071045,0,0,0.99999988079071045,-1.1920928955078125E-7,0,0,7.4226693413947942E-7,-8.8485127428331034E-14,1]},{"mesh":2,"matrix":[1,0,0,0,0,-1.1920928955078125E-7,-0.99999988079071045,0,0,0.99999988079071045,-1.1920928955078125E-7,0,0,7.4226693413947942E-7,-8.8485127428331034E-14,1]},{"mesh":3,"matrix":[1,0,0,0,0,-1.1920928955078125E-7,-0.99999988079071045,0,0,0.99999988079071045,-1.1920928955078125E-7,0,0,7.4226693413947942E-7,-8.8485127428331034E-14,1]},{"mesh":4,"matrix":[1,0,0,0,0,-1.1920928955078125E-7,-0.99999988079071045,0,0,0.99999988079071045,-1.1920928955078125E-7,0,0,7.4226693413947942E-7,-8.8485127428331034E-14,1]},{"mesh":5,"matrix":[1,0,0,0,0,-1.1920928955078125E-7,-0.99999988079071045,0,0,0.99999988079071045,-1.1920928955078125E-7,0,0,7.4226693413947942E-7,-8.8485127428331034E-14,1]}],"meshes":[{"primitives":[{"attributes":{"POSITION":0},"mode":4,"indices":1,"material":0}]},{"primitives":[{"attributes":{"POSITION":2},"mode":4,"indices":3,"material":1}]},{"primitives":[{"attributes":{"POSITION":4},"mode":4,"indices":5,"material":2}]},{"primitives":[{"attributes":{"POSITION":6},"mode":4,"indices":7,"material":3}]},{"primitives":[{"attributes":{"POSITION":8},"mode":4,"indices":9,"material":4}]},{"primitives":[{"attributes":{"POSITION":10},"mode":4,"indices":11,"material":5}]}],"materials":[{"name":"White","pbrMetallicRoughness":{"baseColorFactor":[1,1,1,1],"metallicFactor":0,"roughnessFactor":0.5},"alphaMode":"OPAQUE"},{"name":"Purple","pbrMetallicRoughness":{"baseColorFactor":[0.50839859247207642,0.12573708593845367,0.800000011920929,1],"metallicFactor":0,"roughnessFactor":0.5},"alphaMode":"OPAQUE"},{"name":"GreenMetallic","pbrMetallicRoughness":{"baseColorFactor":[0.13828890025615692,0.800000011920929,0.036837730556726456,1],"metallicFactor":1,"roughnessFactor":0},"alphaMode":"OPAQUE"},{"name":"Yellow","pbrMetallicRoughness":{"baseColorFactor":[0.7760016918182373,0.800000011920929,0,1],"metallicFactor":0,"roughnessFactor":0.5},"alphaMode":"OPAQUE"},{"name":"Red","pbrMetallicRoughness":{"baseColorFactor":[0.800000011920929,0,0,1],"metallicFactor":0,"roughnessFactor":0.5},"alphaMode":"OPAQUE"},{"name":"Metallic","pbrMetallicRoughness":{"baseColorFactor":[0,0.3515326976776123,0.80695235729217529,1],"metallicFactor":1,"roughnessFactor":0.25},"alphaMode":"OPAQUE"}],"accessors":[{"bufferView":0,"byteOffset":0,"count":4,"componentType":5126,"type":"VEC3","min":[-6.2265872955322266,-6.22658634185791,-7.4226704782631714E-7],"max":[6.2265872955322266,6.22658634185791,7.4226704782631714E-7]},{"bufferView":1,"byteOffset":0,"count":6,"componentType":5125,"type":"SCALAR"},{"bufferView":2,"byteOffset":0,"count":8,"componentType":5126,"type":"VEC3","min":[-3.5810487270355225,-2.9538235664367676,1.3302375078201294],"max":[-2.2317838668823242,-1.6045587062835693,2.6795024871826172]},{"bufferView":3,"byteOffset":0,"count":36,"componentType":5125,"type":"SCALAR"},{"bufferView":4,"byteOffset":0,"count":8,"componentType":5126,"type":"VEC3","min":[-3.5937595367431641,-0.93304914236068726,0.34506100416183472],"max":[-1.6408655643463135,1.0553756952285767,1.8088392019271851]},{"bufferView":5,"byteOffset":0,"count":36,"componentType":5125,"type":"SCALAR"},{"bufferView":6,"byteOffset":0,"count":20,"componentType":5126,"type":"VEC3","min":[-0.67461514472961426,2.3477983474731445,0.57239985466003418],"max":[0.3234841525554657,3.5003035068511963,1.7249053716659546]},{"bufferView":7,"byteOffset":0,"count":108,"componentType":5125,"type":"SCALAR"},{"bufferView":8,"byteOffset":0,"count":4,"componentType":5126,"type":"VEC3","min":[1.6518310308456421,-4.0717658996582031,1.0298950672149658],"max":[3.2132322788238525,-2.5584738254547119,1.9174855947494507]},{"bufferView":9,"byteOffset":0,"count":6,"componentType":5125,"type":"SCALAR"},{"bufferView":10,"byteOffset":0,"count":4,"componentType":5126,"type":"VEC3","min":[1.5305891036987305,-1.738649845123291,1.2407858371734619],"max":[3.435020923614502,0.29317429661750793,1.9605942964553833]},{"bufferView":11,"byteOffset":0,"count":6,"componentType":5125,"type":"SCALAR"}],"bufferViews":[{"buffer":0,"byteOffset":0,"byteLength":48,"byteStride":12,"target":34962},{"buffer":0,"byteOffset":48,"byteLength":24,"target":34963},{"buffer":0,"byteOffset":72,"byteLength":96,"byteStride":12,"target":34962},{"buffer":0,"byteOffset":168,"byteLength":144,"target":34963},{"buffer":0,"byteOffset":312,"byteLength":96,"byteStride":12,"target":34962},{"buffer":0,"byteOffset":408,"byteLength":144,"target":34963},{"buffer":0,"byteOffset":552,"byteLength":240,"byteStride":12,"target":34962},{"buffer":0,"byteOffset":792,"byteLength":432,"target":34963},{"buffer":0,"byteOffset":1224,"byteLength":48,"byteStride":12,"target":34962},{"buffer":0,"byteOffset":1272,"byteLength":24,"target":34963},{"buffer":0,"byteOffset":1296,"byteLength":48,"byteStride":12,"target":34962},{"buffer":0,"byteOffset":1344,"byteLength":24,"target":34963}],"buffers":[{"byteLength":1368,"uri":"D:\\CodeRepositories\\Master\\Advanced Graphics\\lighthouse2\\apps\\imguiapp\\data\\reflectionScene\\test3.bin"}]}