{"asset":{"generator":"3D Builder","version":"2.0"},"scene":0,"scenes":[{"nodes":[0,1]}],"nodes":[{"mesh":0,"matrix":[39.370079040527344,0,0,0,0,-4.6932791519793682E-6,-39.370075225830078,0,0,39.370075225830078,-4.6932791519793682E-6,0,0,0.99999988079071045,-1.1920928955078125E-7,1]},{"mesh":1,"matrix":[41.157005310058594,0,0,0,0,-4.9060513447329868E-6,-41.154937744140625,0,0,61.8931999206543,-7.3782453000603709E-6,0,-1.2624677419662476,-0.033907976001501083,-0.77053308486938477,1]}],"meshes":[{"primitives":[{"attributes":{"POSITION":0},"mode":4,"indices":1,"material":0}]},{"primitives":[{"attributes":{"POSITION":2,"TEXCOORD_0":3},"mode":4,"indices":4,"material":1}]}],"materials":[{"pbrMetallicRoughness":{"baseColorFactor":[1,1,1,1],"metallicFactor":1,"roughnessFactor":1,"baseColorTexture":{"index":0,"texCoord":0},"metallicRoughnessTexture":{"index":1,"texCoord":0}},"alphaMode":"OPAQUE"},{"pbrMetallicRoughness":{"baseColorFactor":[1,1,1,1],"metallicFactor":0,"roughnessFactor":1,"baseColorTexture":{"index":2,"texCoord":0}},"alphaMode":"OPAQUE"}],"textures":[{"source":0,"sampler":0},{"source":1,"sampler":0},{"source":2,"sampler":0}],"images":[{"uri":"AnimatedCube_BaseColor.png"},{"uri":"AnimatedCube_MetallicRoughness_10852638490067281019.png"},{"uri":"papyrus.jpg"}],"samplers":[{"magFilter":9729,"wrapS":10497,"wrapT":10497}],"accessors":[{"bufferView":0,"byteOffset":0,"count":100,"componentType":5126,"type":"VEC3","min":[-0.025399999693036079,-0.025399999693036079,-0.025399999693036079],"max":[0.02537970058619976,0.02537970058619976,0.02537970058619976]},{"bufferView":1,"byteOffset":0,"count":288,"componentType":5125,"type":"SCALAR"},{"bufferView":2,"byteOffset":0,"count":8,"componentType":5126,"type":"VEC3","min":[0,0.042998004704713821,0],"max":[0.039998002350330353,0.082998007535934448,0.039998002350330353]},{"bufferView":3,"byteOffset":0,"count":8,"componentType":5126,"type":"VEC2"},{"bufferView":4,"byteOffset":0,"count":36,"componentType":5125,"type":"SCALAR"}],"bufferViews":[{"buffer":0,"byteOffset":0,"byteLength":1200,"byteStride":12,"target":34962},{"buffer":0,"byteOffset":1200,"byteLength":1152,"target":34963},{"buffer":0,"byteOffset":2352,"byteLength":96,"byteStride":12,"target":34962},{"buffer":0,"byteOffset":2448,"byteLength":64,"byteStride":8,"target":34962},{"buffer":0,"byteOffset":2512,"byteLength":144,"target":34963}],"buffers":[{"byteLength":2656,"uri":"twocubes2.bin"}]}